# xmcd
# 
# Track frame offsets:
#     150
#     28459
#     54021
#     83511
#     113063
#     139118
#     154246
#     181204
# 
# Disc length: 2741
# 
# Revision: 0
# Processed by: cddbd v1.5.2PL0 Copyright (c) Steve Scherf et al.
# Submitted via: BonkEnc v1.0beta4
# 
DISCID=5d0ab308
DTITLE=Patrick O'Hearn - Trust
DYEAR=1995
DGENRE=New Age
TTITLE0=Liberty
TTITLE1=Two Continents
TTITLE2=Equinox
TTITLE3=Trust
TTITLE4=Synergy
TTITLE5=The Lone Man
TTITLE6=3 Circles
TTITLE7=Farewell
EXTD=Patrick O'Hearn - Electronics - Bass - Percussion - Textural Guitar\nWarren Cuccurullo - Guitar (Liberty]\nDavid Torn - Textural Guitar (The Lone Man, 3 Circles]\nPeter Maunu - Textural Guitar (Farewell]\nTerry Bozzio - Turkisn Drum (Two Continents)
EXTD=\n\nAll songs composed by Patrick O'Hearn YEAR: 1995
EXTT0=
EXTT1=
EXTT2=
EXTT3=
EXTT4=
EXTT5=
EXTT6=
EXTT7=
PLAYORDER=
